<?xml version="1.0" encoding="utf-8"?>
<!-- Generator: Adobe Illustrator 24.0.1, SVG Export Plug-In . SVG Version: 6.00 Build 0)  -->
<svg version="1.1" id="Layer_1" xmlns="http://www.w3.org/2000/svg" xmlns:xlink="http://www.w3.org/1999/xlink" x="0px" y="0px"
	 viewBox="0 0 265.5 60.9" style="enable-background:new 0 0 265.5 60.9;" xml:space="preserve">
<style type="text/css">
	.st0{fill:#E43D30;}
	.st1{fill:#FFFFFF;}
	.st2{fill:#1D1D1B;}
</style>
<path class="st0" d="M5.5,21.3c0.4-0.6,1.3-0.8,2-0.5s1,1.1,0.8,1.9l0,0l0,0c0,0,0,0,0,0.1S8.2,23,8.2,23.2C8.1,23.5,8,24,7.9,24.6
	c-0.2,1.2-0.4,2.8-0.4,4.4c0,0.9,0.1,1.8,0.2,2.6c0.2,0.8,0.4,1.5,0.7,2.1c0.2,0.4,0.4,0.7,0.7,0.9c0.4,0.3,0.8,0.6,1.5,0.7
	c0.4,0.1,0.8,0.1,1.1,0.1c0.4,0,0.7,0,1.1-0.1c0.3-0.1,0.6-0.2,0.9-0.4c0.6-0.3,1.1-0.9,1.7-1.5c0.3-0.4,0.6-0.9,0.9-1.5
	c0.4-0.7,0.7-1.4,0.9-2.1c0.4-0.9,0.6-1.8,0.8-2.5c0.2-0.8,1-1.3,1.8-1.2c0.8,0.1,1.4,0.8,1.3,1.6l0,0c0,0,0,0,0,0.1s0,0.2,0,0.3
	c0,0.5,0,1.2,0.1,2.1s0.3,1.8,0.6,2.7c0.2,0.5,0.5,1,0.8,1.4c0.2,0.2,0.4,0.4,0.6,0.5c0.2,0.2,0.5,0.3,0.8,0.4l0,0
	c0.6,0.2,1.2,0.3,1.9,0.3c0.6,0,1.3-0.1,1.9-0.3s1.3-0.4,2-0.8c0.4-0.2,0.9-0.5,1.3-0.7c-0.5-1.4-0.8-2.9-0.8-4.5
	c0-1.1,0.2-2.3,0.5-3.5s0.9-2.3,1.6-3.4c0.8-1.2,1.8-2.1,2.8-2.7s2.1-0.9,3.1-0.9c1.1,0,2.1,0.3,2.9,0.8c0.8,0.5,1.5,1.3,1.9,2.2
	c0.3,0.6,0.4,1.3,0.4,2c0,0.5-0.1,1.1-0.3,1.6s-0.4,1-0.8,1.5c-1,1.4-2.3,3-3.9,4.7c-1,1-2.1,2.1-3.3,3c0.1,0,0.1,0.1,0.2,0.2
	c0.4,0.3,0.8,0.5,1.3,0.7s1,0.2,1.6,0.2c0.7,0,1.4-0.1,2.2-0.3s1.7-0.6,2.7-1c1.9-0.9,4.1-2.4,6.4-4.3c1.7-1.4,3.3-2.8,5.2-4.4v-25
	H0.2V25c1-0.4,2.3-1,3.3-1.8C4.3,22.6,5,22,5.5,21.3"/>
<path class="st0" d="M39.9,25.2c0.2-0.2,0.3-0.5,0.3-0.7c0.1-0.2,0.1-0.4,0.1-0.6s0-0.5-0.1-0.7s-0.2-0.4-0.4-0.6
	c-0.4-0.3-0.9-0.6-1.5-0.6c-0.4,0-0.9,0.1-1.5,0.5s-1.2,0.9-1.8,1.8c-0.5,0.7-0.9,1.5-1.2,2.4s-0.4,1.7-0.4,2.6s0.1,1.7,0.3,2.5
	C36.4,29.7,38.6,27,39.9,25.2"/>
<path class="st0" d="M46.4,36.4c-1.7,1-3.4,1.8-4.9,2.2c-1.1,0.3-2.1,0.5-3.1,0.5c-0.9,0-1.8-0.1-2.6-0.4s-1.6-0.7-2.3-1.3
	c-0.3-0.2-0.5-0.5-0.8-0.8c-1.3,0.8-2.7,1.4-4.1,1.8c-0.9,0.2-1.8,0.4-2.7,0.4c-1,0-1.9-0.1-2.9-0.5c-0.7-0.2-1.4-0.6-1.9-1
	s-1-1-1.3-1.5c-0.4-0.6-0.7-1.3-1-2c-0.3,0.5-0.5,0.9-0.9,1.3c-0.6,0.8-1.4,1.6-2.3,2.2c-0.5,0.3-1.1,0.7-1.7,0.9
	c-0.7,0.2-1.5,0.4-2.3,0.4c-0.6,0-1.2-0.1-1.8-0.2c-0.9-0.2-1.8-0.6-2.5-1.1S6,36.1,5.6,35.4c-0.3-0.5-0.5-1-0.7-1.5
	c-0.3-0.7-0.4-1.4-0.5-2.1c-0.2-0.9-0.2-1.9-0.2-2.8s0.1-1.8,0.1-2.6c-0.7,0.4-1.4,0.8-2.1,1.1c-0.8,0.4-1.6,0.7-2.2,0.9v27.1h54.7
	V29.9c-1.1,0.9-2.1,1.8-3.1,2.6C49.9,34.1,48.2,35.4,46.4,36.4"/>
<path class="st1" d="M49.7,30.1c-2.3,1.9-4.4,3.4-6.4,4.3c-1,0.5-1.9,0.8-2.7,1s-1.6,0.3-2.2,0.3c-0.6,0-1.1-0.1-1.6-0.2
	c-0.5-0.2-0.9-0.4-1.3-0.7c-0.1,0-0.1-0.1-0.2-0.2c1.2-1,2.3-2,3.3-3c1.6-1.7,3-3.4,3.9-4.7c0.3-0.5,0.6-1,0.8-1.5s0.3-1.1,0.3-1.6
	c0-0.7-0.2-1.4-0.4-2c-0.4-0.9-1.1-1.7-1.9-2.2c-0.8-0.5-1.8-0.8-2.9-0.8c-1,0-2.1,0.3-3.1,0.9s-2,1.5-2.8,2.7
	c-0.8,1.1-1.3,2.2-1.6,3.4c-0.3,1.2-0.5,2.4-0.5,3.5c0,1.6,0.3,3.1,0.8,4.5c-0.4,0.3-0.9,0.5-1.3,0.7c-0.7,0.3-1.4,0.6-2,0.8
	s-1.3,0.3-1.9,0.3s-1.3-0.1-1.9-0.3l0,0c-0.3-0.1-0.5-0.2-0.8-0.4c-0.2-0.2-0.4-0.3-0.6-0.6c-0.3-0.4-0.6-0.9-0.8-1.4
	c-0.3-0.8-0.5-1.8-0.6-2.7c-0.1-0.9-0.1-1.6-0.1-2.1c0-0.1,0-0.3,0-0.3v-0.1l0,0c0-0.8-0.5-1.5-1.3-1.7c-0.9,0-1.7,0.5-1.9,1.3
	c-0.2,0.6-0.4,1.5-0.8,2.5c-0.3,0.7-0.6,1.4-0.9,2.1c-0.3,0.5-0.6,1-0.9,1.5c-0.5,0.7-1.1,1.2-1.7,1.5c-0.3,0.2-0.6,0.3-0.9,0.4
	c-0.3,0.1-0.7,0.1-1.1,0.1c-0.3,0-0.7,0-1.1-0.1c-0.6-0.2-1.1-0.4-1.5-0.7c-0.3-0.2-0.5-0.6-0.7-0.9c-0.3-0.6-0.6-1.3-0.7-2.1
	c-0.2-0.8-0.2-1.7-0.2-2.6c0-1.6,0.2-3.2,0.4-4.4C8,24,8.1,23.5,8.2,23.2c0-0.2,0.1-0.3,0.1-0.4v-0.1l0,0l0,0
	c0.2-0.7-0.2-1.5-0.8-1.9c-0.7-0.3-1.5-0.1-2,0.5c-0.5,0.7-1.2,1.3-2,1.9C2.4,24,1.2,24.6,0.2,25v3.4c0.6-0.2,1.4-0.5,2.2-0.9
	c0.7-0.3,1.4-0.7,2.1-1.1c-0.1,0.8-0.1,1.7-0.1,2.6s0.1,1.9,0.2,2.8c0.1,0.7,0.3,1.4,0.5,2.1c0.2,0.5,0.4,1,0.7,1.5
	c0.4,0.7,1,1.4,1.7,1.9S9,38.2,10,38.4c0.6,0.1,1.2,0.2,1.8,0.2c0.8,0,1.6-0.1,2.3-0.4c0.6-0.2,1.2-0.5,1.7-0.9
	c0.9-0.6,1.6-1.4,2.3-2.2c0.3-0.4,0.6-0.9,0.9-1.3c0.2,0.7,0.5,1.3,1,2c0.4,0.5,0.8,1,1.3,1.5c0.5,0.4,1.2,0.8,1.9,1
	c0.9,0.3,1.9,0.5,2.9,0.5c0.9,0,1.8-0.1,2.7-0.4c1.4-0.4,2.8-1,4.1-1.8c0.2,0.3,0.5,0.5,0.8,0.8c0.7,0.5,1.5,1,2.3,1.3
	s1.7,0.4,2.6,0.4c1,0,2-0.2,3.1-0.5c1.6-0.4,3.2-1.2,5-2.2c1.7-1,3.5-2.3,5.3-3.8c1-0.9,2-1.7,3.1-2.6v-4.2
	C53,27.3,51.3,28.7,49.7,30.1 M33.5,29.4c0-0.9,0.1-1.8,0.4-2.6c0.3-0.9,0.6-1.7,1.2-2.4c0.6-0.9,1.3-1.5,1.8-1.8
	c0.6-0.3,1.1-0.5,1.5-0.5c0.6,0,1.1,0.2,1.5,0.6c0.2,0.2,0.3,0.4,0.4,0.6s0.1,0.4,0.1,0.7c0,0.2,0,0.4-0.1,0.6S40.1,25,40,25.3
	c-1.3,1.9-3.6,4.6-6.1,6.7C33.6,31.1,33.5,30.2,33.5,29.4"/>
<g>
	<path class="st0" d="M5.3,21.6c0.4-0.6,1.3-0.8,2-0.5s1,1.1,0.8,1.8l0,0l0,0c0,0,0,0,0,0.1s0,0.2-0.1,0.4c-0.1,0.3-0.2,0.8-0.3,1.4
		c-0.2,1.2-0.4,2.8-0.4,4.3c0,0.9,0.1,1.8,0.2,2.6c0.2,0.8,0.4,1.5,0.7,2.1c0.2,0.4,0.5,0.7,0.7,0.9c0.4,0.3,0.8,0.6,1.5,0.7
		c0.4,0.1,0.8,0.1,1.1,0.1c0.4,0,0.7,0,1.1-0.1c0.3-0.1,0.6-0.2,0.9-0.4c0.6-0.3,1.1-0.9,1.6-1.5c0.3-0.4,0.6-0.9,0.9-1.4
		c0.4-0.7,0.7-1.4,0.9-2.1c0.3-0.9,0.6-1.8,0.8-2.4c0.2-0.8,1-1.3,1.8-1.1c0.8,0.1,1.4,0.8,1.3,1.6l0,0c0,0,0,0,0,0.1s0,0.2,0,0.3
		c0,0.5,0,1.2,0.1,2.1s0.3,1.8,0.6,2.6c0.2,0.5,0.5,1,0.8,1.4c0.2,0.2,0.4,0.4,0.5,0.5c0.2,0.2,0.5,0.3,0.8,0.4l0,0
		c0.6,0.2,1.2,0.3,1.8,0.3c0.6,0,1.2-0.1,1.9-0.3s1.3-0.4,2-0.8c0.4-0.2,0.9-0.5,1.3-0.7c-0.5-1.3-0.8-2.9-0.8-4.5
		c0-1.1,0.2-2.3,0.5-3.5s0.9-2.3,1.6-3.3c0.8-1.2,1.8-2.1,2.8-2.7s2.1-0.9,3.1-0.9s2,0.3,2.9,0.8c0.8,0.5,1.5,1.3,1.9,2.2
		c0.3,0.6,0.4,1.3,0.4,1.9c0,0.5-0.1,1-0.3,1.6s-0.4,1-0.8,1.5c-1,1.3-2.3,3-3.9,4.7c-1,1-2.1,2-3.2,3c0.1,0,0.1,0.1,0.2,0.2
		c0.4,0.3,0.8,0.5,1.3,0.7s1,0.2,1.6,0.2c0.7,0,1.4-0.1,2.2-0.3s1.7-0.6,2.7-1c1.9-0.9,4-2.4,6.3-4.3c1.6-1.4,3.3-2.8,5.2-4.3V1.2H0
		v23.9c1-0.4,2.2-1,3.3-1.8C4.1,22.9,4.8,22.2,5.3,21.6"/>
	<path class="st0" d="M39.4,25.4c0.2-0.2,0.3-0.5,0.3-0.7c0.1-0.2,0.1-0.4,0.1-0.6s0-0.5-0.1-0.7s-0.2-0.4-0.4-0.6
		c-0.3-0.3-0.8-0.6-1.4-0.6c-0.4,0-0.9,0.1-1.5,0.4s-1.2,0.9-1.8,1.8c-0.5,0.7-0.9,1.5-1.2,2.4S33,28.5,33,29.4s0.1,1.7,0.3,2.5
		C35.8,29.9,38,27.2,39.4,25.4"/>
	<path class="st0" d="M45.8,36.5c-1.7,1-3.3,1.7-4.9,2.2c-1,0.3-2.1,0.4-3,0.4s-1.8-0.1-2.6-0.4S33.7,38,33,37.5
		c-0.3-0.2-0.5-0.5-0.8-0.8c-1.3,0.8-2.6,1.4-4.1,1.8c-0.9,0.2-1.8,0.4-2.7,0.4c-0.9,0-1.9-0.1-2.8-0.5c-0.7-0.2-1.3-0.6-1.9-1
		c-0.5-0.4-1-1-1.3-1.5c-0.4-0.6-0.7-1.3-1-2c-0.3,0.4-0.5,0.9-0.9,1.3c-0.6,0.8-1.3,1.6-2.2,2.2c-0.5,0.3-1.1,0.6-1.7,0.8
		c-0.7,0.2-1.5,0.4-2.3,0.4c-0.6,0-1.2-0.1-1.8-0.2c-0.9-0.2-1.8-0.6-2.5-1.1s-1-1.1-1.4-1.8C5.3,35,5,34.5,4.8,34
		c-0.2-0.7-0.4-1.4-0.5-2.1C4.2,31,4.1,30,4.1,29.1s0.1-1.7,0.1-2.5c-0.7,0.4-1.4,0.8-2,1.1c-0.8,0.4-1.6,0.7-2.2,0.9v26.8h54.2
		V30.1c-1.1,0.9-2.1,1.8-3.1,2.6C49.3,34.2,47.5,35.5,45.8,36.5"/>
	<path class="st1" d="M49,30.3c-2.3,1.9-4.4,3.4-6.3,4.3c-1,0.5-1.8,0.8-2.7,1c-0.8,0.2-1.6,0.3-2.2,0.3c-0.6,0-1.1-0.1-1.6-0.2
		c-0.5-0.2-0.9-0.4-1.3-0.7c-0.1,0-0.1-0.1-0.2-0.2c1.2-0.9,2.2-2,3.2-3c1.6-1.7,2.9-3.4,3.9-4.7c0.3-0.5,0.6-1,0.8-1.5
		s0.3-1,0.3-1.6c0-0.7-0.2-1.3-0.4-1.9c-0.4-0.9-1-1.6-1.9-2.2c-0.8-0.5-1.8-0.8-2.9-0.8c-1,0-2.1,0.3-3.1,0.9s-2,1.5-2.8,2.7
		c-0.8,1-1.3,2.2-1.6,3.3s-0.5,2.3-0.5,3.5c0,1.6,0.3,3.1,0.8,4.5c-0.4,0.3-0.9,0.5-1.3,0.7c-0.7,0.3-1.3,0.6-2,0.8
		s-1.3,0.3-1.9,0.3s-1.2-0.1-1.8-0.3l0,0c-0.3-0.1-0.5-0.2-0.8-0.4c-0.2-0.2-0.4-0.3-0.6-0.6c-0.3-0.4-0.6-0.9-0.8-1.4
		c-0.3-0.8-0.5-1.8-0.6-2.6c-0.1-0.9-0.1-1.6-0.1-2.1c0-0.1,0-0.3,0-0.3V28l0,0c0-0.8-0.5-1.5-1.3-1.6s-1.6,0.4-1.8,1.1
		c-0.2,0.6-0.4,1.5-0.8,2.4c-0.3,0.7-0.6,1.4-0.9,2.1c-0.3,0.5-0.6,1-0.9,1.4c-0.5,0.7-1.1,1.2-1.6,1.5c-0.3,0.2-0.6,0.3-0.9,0.4
		c-0.3,0.1-0.7,0.1-1.1,0.1c-0.3,0-0.7,0-1.1-0.1c-0.6-0.1-1.1-0.4-1.5-0.7c-0.3-0.3-0.5-0.5-0.7-0.9c-0.3-0.5-0.6-1.3-0.7-2.1
		c-0.2-0.8-0.2-1.7-0.2-2.6c0-1.6,0.2-3.2,0.4-4.3c0.1-0.6,0.2-1.1,0.3-1.4C8,23.2,8,23.1,8.1,23v-0.1l0,0l0,0
		c0.2-0.7-0.2-1.5-0.8-1.8c-0.7-0.3-1.5-0.1-2,0.5c-0.5,0.7-1.2,1.3-2,1.9C2.2,24.2,1,24.8,0,25.2v3.4c0.6-0.2,1.4-0.5,2.2-0.9
		c0.7-0.3,1.3-0.7,2-1.1c-0.1,0.8-0.1,1.7-0.1,2.5c0,0.9,0.1,1.9,0.2,2.8c0.1,0.7,0.3,1.4,0.5,2.1c0.2,0.5,0.4,1,0.7,1.5
		c0.4,0.7,1,1.3,1.7,1.9c0.7,0.5,1.5,0.9,2.5,1.1c0.6,0.1,1.2,0.2,1.8,0.2c0.8,0,1.6-0.1,2.3-0.4c0.6-0.2,1.2-0.5,1.7-0.8
		c0.9-0.6,1.6-1.4,2.2-2.2c0.3-0.4,0.6-0.9,0.9-1.3c0.2,0.7,0.5,1.3,1,2c0.4,0.5,0.8,1,1.3,1.5c0.5,0.4,1.1,0.8,1.9,1
		c0.9,0.3,1.9,0.5,2.8,0.5s1.8-0.1,2.7-0.4c1.4-0.4,2.8-1,4.1-1.8c0.2,0.3,0.5,0.5,0.8,0.8c0.7,0.5,1.4,1,2.3,1.2s1.7,0.4,2.6,0.4
		c1,0,2-0.2,3-0.4c1.6-0.4,3.2-1.2,4.9-2.2s3.5-2.3,5.3-3.8c1-0.9,2-1.7,3.1-2.6V26C52.3,27.5,50.7,28.9,49,30.3 M33,29.5
		c0-0.9,0.1-1.7,0.4-2.6c0.3-0.8,0.6-1.6,1.2-2.4c0.6-0.9,1.3-1.4,1.8-1.8c0.6-0.3,1.1-0.4,1.5-0.4c0.6,0,1.1,0.2,1.4,0.6
		c0.2,0.2,0.3,0.4,0.4,0.6s0.1,0.4,0.1,0.7c0,0.2,0,0.4-0.1,0.6s-0.2,0.4-0.3,0.7c-1.3,1.9-3.5,4.5-6,6.7C33.1,31.3,33,30.4,33,29.5
		"/>
	<g>
		<path class="st2" d="M73.5,1.4v14.2c0,2.5,2.1,4.2,4.8,4.2c2.7,0,4.8-1.7,4.8-4.2V1.4h4.4v14.1c0,5-3.3,8.6-9.2,8.6
			c-5.9,0-9.2-3.6-9.2-8.6V1.4H73.5z"/>
		<path class="st2" d="M95.1,7.2l0.7,2.2c0,0,1.3-2.6,4.9-2.6c3.1,0,6.3,1.7,6.3,7V24h-4.5v-9.9c0-2-1.3-3-3-3
			c-2.2,0-3.4,1.7-3.4,3.6V24h-4.5V7.2H95.1z"/>
		<path class="st2" d="M116.2,7.2V24h-4.4V11l-2-0.7V7.2H116.2z M116.1,2.5c0,1.4-1.2,2.5-2.5,2.5c-1.4,0-2.4-1.1-2.4-2.5
			c0-1.3,1-2.5,2.4-2.5S116.1,1.2,116.1,2.5"/>
		<polygon class="st2" points="122.8,7.2 126.3,19 126.3,19 129.9,7.2 134.5,7.2 128.4,24 124.1,24 118.3,7.2 		"/>
		<path class="st2" d="M143.8,6.9c5.2,0,7.7,4,7.7,8.5c0,1.1-0.2,1.9-0.2,1.9H140c0.2,2.4,2.3,3.3,4.3,3.3c1.9,0,3.7-0.5,4.8-1
			l1.5,3.3c-1.7,1-4.1,1.5-6.3,1.5c-5.1,0-8.8-3.4-8.8-8.6S138.8,6.9,143.8,6.9 M147.3,14.2c-0.1-1.8-0.8-3.5-3.3-3.5
			c-2.1,0-3.6,1.2-4,3.5H147.3z"/>
		<path class="st2" d="M158.1,7.3l0.6,2.6c1-2.1,2.8-2.8,5.8-2.8v4.6h-0.6c-2.9,0-4.9,1.1-4.9,4.7V24h-4.5V7.3H158.1z"/>
		<path class="st2" d="M166.3,22.8l1.3-3.2c1.2,0.5,2.9,1.1,4.6,1.1c2.3,0,3-0.8,3-1.5c0-2.6-8.9-1-8.9-7.2c0-3.2,2.5-5.1,6.5-5.1
			c2.5,0,4.8,0.8,6,1.3l-1.3,3.1c0,0-2.2-1-4.4-1c-1.9,0-2.6,0.8-2.6,1.6c0,2.6,8.9,1,8.9,7.2c0,3.3-2.7,5.2-7,5.2
			C169.4,24.3,167.3,23.4,166.3,22.8"/>
		<path class="st2" d="M187.6,7.2V24h-4.4V11l-2-0.7V7.2H187.6z M187.6,2.5c0,1.4-1.2,2.5-2.5,2.5c-1.4,0-2.4-1.1-2.4-2.5
			c0-1.3,1-2.5,2.4-2.5S187.6,1.2,187.6,2.5"/>
		<path class="st2" d="M207.9,0.3V24h-3.5l-0.6-2.1c-1.2,1.8-3.1,2.5-5.1,2.5c-4.9,0-8-4.1-8-8.7s3.2-8.7,7.9-8.7
			c1.9,0,3.8,0.7,4.8,2V0.3H207.9z M195.2,15.6c0,3.1,1.9,4.9,4.4,4.9c2.8,0,4.5-2.2,4.5-4.8s-1.7-4.9-4.5-4.9
			C197,10.7,195.2,12.5,195.2,15.6"/>
		<path class="st2" d="M218.8,6.9c4.2,0,6.5,1.9,6.5,5.6v7c0,0.5,0.2,0.6,0.7,0.6c0.3,0,0.8,0,1.5-0.1v3.5c-0.1,0.1-1.5,0.5-2.7,0.5
			c-1.1,0-2.9-0.4-2.9-2.2v-0.4c-0.9,1.6-2.9,2.9-5.2,2.9c-3.1,0-6.1-1.9-6.1-5.5s3.1-5.4,6.9-5.4c1.1,0,2.4,0.1,3.5,0.2v-0.5
			c0-2.5-1.7-2.8-3-2.8c-1.4,0-3.8,0.4-5.1,0.6L212.2,8C213.7,7.4,216.5,6.9,218.8,6.9 M218.4,16.3c-1.5,0-3.7,0.4-3.7,2.3
			c0,1.5,1.3,2.3,2.8,2.3c1.7,0,3.6-1.2,3.6-2.7v-1.7C220.3,16.5,219.3,16.3,218.4,16.3"/>
		<path class="st2" d="M246.3,0.3V24h-3.5l-0.6-2.1c-1.2,1.8-3.1,2.5-5.1,2.5c-4.9,0-8-4.1-8-8.7S232.3,7,237,7c1.9,0,3.8,0.7,4.8,2
			V0.3H246.3z M233.6,15.6c0,3.1,1.9,4.9,4.4,4.9c2.8,0,4.5-2.2,4.5-4.8s-1.7-4.9-4.5-4.9C235.4,10.7,233.6,12.5,233.6,15.6"/>
		<path class="st2" d="M257.8,6.9c5.2,0,7.7,4,7.7,8.5c0,1.1-0.2,1.9-0.2,1.9H254c0.2,2.4,2.3,3.3,4.3,3.3c1.9,0,3.7-0.5,4.8-1
			l1.5,3.3c-1.7,1-4.1,1.5-6.3,1.5c-5.1,0-8.8-3.4-8.8-8.6C249.4,10.6,252.8,6.9,257.8,6.9 M261.3,14.2c-0.1-1.8-0.8-3.5-3.3-3.5
			c-2.1,0-3.6,1.2-4,3.5H261.3z"/>
		<polygon class="st2" points="85.2,32.7 85.2,36.9 73.8,36.9 73.8,42.3 83.6,42.3 83.6,46.4 73.8,46.4 73.8,51.2 85.5,51.2 
			85.5,55.4 69.2,55.4 69.2,32.7 		"/>
		<path class="st2" d="M93,38.6v9.9c0,2,1,3,3.2,3c1.8,0,3.2-0.9,3.2-2.9v-9.9h4.5v16.8h-3.5l-0.6-1.9c-1.1,1.5-2.7,2.2-4.8,2.2
			c-4.4,0-6.6-2.5-6.6-7V38.6H93L93,38.6z"/>
		<path class="st2" d="M111.5,38.7l0.6,2.7c1-2.1,2.8-2.8,5.8-2.8v4.6h-0.6c-2.8,0-4.9,1.1-4.9,4.7v7.5h-4.5V38.7H111.5L111.5,38.7z
			"/>
		<path class="st2" d="M128.2,38.2c4.9,0,8.8,3.5,8.8,8.7s-3.9,8.7-8.8,8.7c-4.8,0-8.8-3.6-8.8-8.7
			C119.4,41.8,123.3,38.2,128.2,38.2 M123.9,47c0,2.8,1.8,4.8,4.3,4.8c2.5,0,4.3-2.1,4.3-4.8c0-2.9-1.8-4.8-4.3-4.8
			C125.7,42.1,123.9,44.1,123.9,47"/>
		<path class="st2" d="M157.2,47c0,4.6-2.8,8.7-8,8.7c-1.1,0-3.6-0.6-4.8-2.5v7.6h-4.3V38.6h3.6l0.8,2.3c1.2-1.7,3.2-2.6,4.8-2.6
			C154.2,38.2,157.2,42,157.2,47 M144,47c0,2.8,1.7,4.8,4.5,4.8c2.4,0,4.3-2,4.3-4.8c0-2.9-2-4.8-4.3-4.8
			C146.1,42.1,144,43.9,144,47"/>
		<path class="st2" d="M167.9,38.2c5.2,0,7.7,4,7.7,8.5c0,1.1-0.2,1.9-0.2,1.9h-11.3c0.2,2.4,2.3,3.3,4.3,3.3c1.9,0,3.7-0.5,4.8-1
			l1.5,3.3c-1.7,1-4.1,1.5-6.3,1.5c-5.1,0-8.8-3.4-8.8-8.6C159.5,42,162.9,38.2,167.9,38.2 M171.4,45.6c-0.1-1.8-0.8-3.5-3.3-3.5
			c-2.1,0-3.6,1.2-4,3.5H171.4z"/>
		<path class="st2" d="M183.8,38.6v16.8h-4.4v-13l-2-0.7v-3.1H183.8z M183.8,33.9c0,1.4-1.2,2.5-2.5,2.5c-1.4,0-2.4-1.1-2.4-2.5
			c0-1.3,1-2.5,2.4-2.5C182.6,31.4,183.8,32.5,183.8,33.9"/>
		<path class="st2" d="M194.7,38.2c4.2,0,6.5,1.9,6.5,5.6v7c0,0.5,0.2,0.6,0.7,0.6c0.3,0,0.8,0,1.5-0.1v3.5
			c-0.1,0.1-1.5,0.5-2.7,0.5c-1.1,0-2.9-0.4-2.9-2.2v-0.4c-0.9,1.7-2.9,2.9-5.2,2.9c-3.1,0-6.1-1.9-6.1-5.5s3.1-5.4,7-5.4
			c1.1,0,2.4,0.1,3.5,0.2v-0.5c0-2.5-1.7-2.8-3-2.8c-1.5,0-3.8,0.4-5.1,0.7l-0.8-3.1C189.6,38.8,192.4,38.2,194.7,38.2 M194.3,47.7
			c-1.5,0-3.7,0.4-3.7,2.3c0,1.5,1.3,2.3,2.8,2.3c1.7,0,3.6-1.2,3.6-2.7V48C196.2,47.8,195.2,47.7,194.3,47.7"/>
	</g>
</g>
</svg>
